<?xml version="1.0" encoding="utf-8"?>
<!-- Generator: Adobe Illustrator 22.0.0, SVG Export Plug-In . SVG Version: 6.00 Build 0)  -->
<svg version="1.1" id="Layer_1" xmlns="http://www.w3.org/2000/svg" xmlns:xlink="http://www.w3.org/1999/xlink" x="0px" y="0px"
	 viewBox="0 0 274.1 266.5" style="enable-background:new 0 0 274.1 266.5;" xml:space="preserve">
<style type="text/css">
	.st0{fill:#A5A5A5;}
</style>
<g>
	<path class="st0" d="M232.3,215.7H41.8V46.8C41.8,23.7,60.6,5,83.7,5h106.8c23.1,0,41.8,18.7,41.8,41.8V215.7z"/>
	<path class="st0" d="M190.4,5h-33.9c23.1,0,41.8,18.7,41.8,41.8v168.9h33.9V46.8C232.3,23.7,213.5,5,190.4,5z"/>
	<path class="st0" d="M41.8,241L41.8,241v-95c0-6.4-5.2-11.6-11.6-11.6H11.6c-6.4,0-11.6,5.2-11.6,11.6v53.2
		C0,222.2,18.7,241,41.8,241z"/>
	<path class="st0" d="M232.3,241L232.3,241v-95c0-6.4,5.2-11.6,11.6-11.6h18.7c6.4,0,11.6,5.2,11.6,11.6v53.2
		C274.1,222.2,255.4,241,232.3,241z"/>
</g>
<path class="st0" d="M234.1,266.5H40c-6.1,0-11.1-5-11.1-11.1v-26.9h216.4v26.9C245.2,261.5,240.3,266.5,234.1,266.5z"/>
<path class="st0" d="M245.7,247.5H28.4c-10.8,0-19.6-8.8-19.6-19.6l0,0c0-17.2,13.9-31.1,31.1-31.1h194.4
	c17.2,0,31.1,13.9,31.1,31.1l0,0C265.3,238.7,256.5,247.5,245.7,247.5z"/>
<path class="st0" d="M41.8,86.9c2.7,0,5-2.2,5-5V46.8c0-20.3,16.5-36.9,36.9-36.9h106.8c20.3,0,36.9,16.5,36.9,36.9V82
	c0,2.7,2.2,5,5,5s5-2.2,5-5V46.8c0-25.8-21-46.8-46.8-46.8H83.7C57.9,0,36.9,21,36.9,46.8V82C36.9,84.7,39.1,86.9,41.8,86.9z"/>
</svg>
