<?xml version="1.0" encoding="utf-8"?>
<!-- Generator: Adobe Illustrator 22.0.0, SVG Export Plug-In . SVG Version: 6.00 Build 0)  -->
<svg version="1.1" id="Layer_1" xmlns="http://www.w3.org/2000/svg" xmlns:xlink="http://www.w3.org/1999/xlink" x="0px" y="0px"
	 viewBox="0 0 27.5 27.1" style="enable-background:new 0 0 27.5 27.1;" xml:space="preserve">
<style type="text/css">
	.Drop_x0020_Shadow{fill:none;}
	.Thick_x0020_Blue_x0020_Neon{fill:none;stroke:#0073BC;stroke-width:10;stroke-linecap:round;stroke-linejoin:round;}
	.Illuminating_x0020_Aqua{fill:url(#SVGID_1_);stroke:#0000FF;stroke-width:0.25;stroke-miterlimit:1;}
	.Black_x0020_Highlight{fill:url(#SVGID_2_);stroke:#0000FF;stroke-width:0.3629;stroke-miterlimit:1;}
	.Bugaboo_GS{fill-rule:evenodd;clip-rule:evenodd;fill:#FFDD00;}
	.st0{fill:#FCFCFC;}
</style>
<linearGradient id="SVGID_1_" gradientUnits="userSpaceOnUse" x1="-342.4346" y1="-448.3297" x2="-342.4346" y2="-449.3297">
	<stop  offset="0" style="stop-color:#1D59F4"/>
	<stop  offset="0.618" style="stop-color:#2D65EE"/>
	<stop  offset="0.6292" style="stop-color:#3864F3"/>
	<stop  offset="0.9831" style="stop-color:#00DDFC"/>
</linearGradient>
<linearGradient id="SVGID_2_" gradientUnits="userSpaceOnUse" x1="-342.4346" y1="-448.3297" x2="-342.4346" y2="-449.3297">
	<stop  offset="0" style="stop-color:#060606"/>
	<stop  offset="0.618" style="stop-color:#000000"/>
	<stop  offset="0.6292" style="stop-color:#000000"/>
	<stop  offset="0.9831" style="stop-color:#000000"/>
</linearGradient>
<g>
	<path class="st0" d="M2.4,3.2C3.3,3.2,4,2.5,4,1.6S3.3,0,2.4,0S0.8,0.7,0.8,1.6S1.5,3.2,2.4,3.2z M2.4,0.9c0.4,0,0.7,0.3,0.7,0.7
		S2.8,2.3,2.4,2.3S1.7,2,1.7,1.6S2,0.9,2.4,0.9z"/>
	<path class="st0" d="M25.9,20.8c-0.9,0-1.6,0.7-1.6,1.6c0,0.9,0.7,1.6,1.6,1.6s1.6-0.7,1.6-1.6C27.5,21.5,26.8,20.8,25.9,20.8z
		 M25.9,23.1c-0.4,0-0.7-0.3-0.7-0.7c0-0.4,0.3-0.7,0.7-0.7c0.4,0,0.7,0.3,0.7,0.7C26.6,22.7,26.3,23.1,25.9,23.1z"/>
	<path class="st0" d="M25.9,6.2c0.3,0,0.5-0.2,0.5-0.5c0-0.3-0.2-0.5-0.5-0.5c-0.3,0-0.5,0.2-0.5,0.5C25.4,5.9,25.6,6.2,25.9,6.2z"
		/>
	<path class="st0" d="M22.7,2.7c0.1,0.1,0.2,0.1,0.3,0.1c0.1,0,0.2,0,0.3-0.1l0.5-0.5l0.5,0.5c0.1,0.1,0.2,0.1,0.3,0.1
		c0.1,0,0.2,0,0.3-0.1c0.2-0.2,0.2-0.5,0-0.6l-0.5-0.5L25,1.1c0.2-0.2,0.2-0.5,0-0.6c-0.2-0.2-0.5-0.2-0.6,0l-0.5,0.5l-0.5-0.5
		c-0.2-0.2-0.5-0.2-0.6,0c-0.2,0.2-0.2,0.5,0,0.6l0.5,0.5l-0.5,0.5C22.6,2.3,22.6,2.6,22.7,2.7z"/>
	<path class="st0" d="M1.8,13.6c0.1,0.1,0.2,0.1,0.3,0.1c0.1,0,0.2,0,0.3-0.1c0.2-0.2,0.2-0.5,0-0.6l-0.5-0.5l0.5-0.5
		c0.2-0.2,0.2-0.5,0-0.6c-0.2-0.2-0.5-0.2-0.6,0l-0.5,0.5l-0.5-0.5c-0.2-0.2-0.5-0.2-0.6,0s-0.2,0.5,0,0.6l0.5,0.5l-0.5,0.5
		c-0.2,0.2-0.2,0.5,0,0.6c0.1,0.1,0.2,0.1,0.3,0.1s0.2,0,0.3-0.1l0.5-0.5L1.8,13.6z"/>
	<path class="st0" d="M3.1,18.5c-1.2,0-2.1,1-2.1,2.1c0,1.2,1,2.1,2.1,2.1c1.2,0,2.1-1,2.1-2.1C5.3,19.4,4.3,18.5,3.1,18.5z
		 M3.1,21.8c-0.7,0-1.2-0.6-1.2-1.2s0.6-1.2,1.2-1.2s1.2,0.6,1.2,1.2S3.8,21.8,3.1,21.8z"/>
	<path class="st0" d="M15,9.3c1.2,0,2.1-1,2.1-2.1C17.2,6,16.2,5,15,5c-1.2,0-2.1,1-2.1,2.1C12.9,8.3,13.8,9.3,15,9.3z M15,5.9
		c0.7,0,1.2,0.6,1.2,1.2S15.7,8.4,15,8.4s-1.2-0.6-1.2-1.2S14.3,5.9,15,5.9z"/>
	<path class="st0" d="M9,10.9c1.2,0,2.1-1,2.1-2.1c0-1.2-1-2.1-2.1-2.1c-1.2,0-2.1,1-2.1,2.1C6.8,10,7.8,10.9,9,10.9z M9,7.6
		c0.7,0,1.2,0.6,1.2,1.2C10.2,9.5,9.6,10,9,10S7.7,9.5,7.7,8.8C7.7,8.1,8.3,7.6,9,7.6z"/>
	<path class="st0" d="M13.9,14.1c1.2,0,2.1-1,2.1-2.1c0-1.2-1-2.1-2.1-2.1c-1.2,0-2.1,1-2.1,2.1C11.8,13.1,12.7,14.1,13.9,14.1z
		 M13.9,10.7c0.7,0,1.2,0.6,1.2,1.2s-0.6,1.2-1.2,1.2s-1.2-0.6-1.2-1.2S13.2,10.7,13.9,10.7L13.9,10.7z"/>
	<path class="st0" d="M13.6,18.9c1.2,0,2.1-1,2.1-2.1c0-1.2-1-2.1-2.1-2.1c-1.2,0-2.1,1-2.1,2.1C11.4,18,12.4,18.9,13.6,18.9z
		 M13.6,15.6c0.7,0,1.2,0.6,1.2,1.2c0,0.7-0.6,1.2-1.2,1.2s-1.2-0.6-1.2-1.2C12.3,16.1,12.9,15.6,13.6,15.6z"/>
	<path class="st0" d="M20.1,12.3c1.2,0,2.1-1,2.1-2.1c0-1.2-1-2.1-2.1-2.1c-1.2,0-2.1,1-2.1,2.1C17.9,11.3,18.9,12.3,20.1,12.3z
		 M20.1,8.9c0.7,0,1.2,0.6,1.2,1.2s-0.6,1.2-1.2,1.2c-0.7,0-1.2-0.6-1.2-1.2S19.4,8.9,20.1,8.9z"/>
	<path class="st0" d="M18.6,12.9c-1.2,0-2.1,1-2.1,2.1c0,1.2,1,2.1,2.1,2.1c1.2,0,2.1-1,2.1-2.1C20.7,13.8,19.8,12.9,18.6,12.9z
		 M18.6,16.2c-0.7,0-1.2-0.6-1.2-1.2s0.6-1.2,1.2-1.2c0.7,0,1.2,0.6,1.2,1.2S19.3,16.2,18.6,16.2z"/>
	<path class="st0" d="M8.6,18.3c0.1,0,0.2,0,0.4,0c0.4,0,0.9-0.1,1.2-0.4c0.5-0.3,0.8-0.8,0.9-1.4c0.1-0.6,0-1.1-0.4-1.6
		c-0.3-0.5-0.8-0.8-1.4-0.9c-0.6-0.1-1.1,0-1.6,0.4c-0.5,0.3-0.8,0.8-0.9,1.4c-0.1,0.6,0,1.1,0.4,1.6C7.5,17.9,8,18.2,8.6,18.3z
		 M7.8,16c0.1-0.3,0.2-0.6,0.5-0.8C8.5,15.1,8.7,15,9,15c0.1,0,0.1,0,0.2,0c0.7,0.1,1.1,0.8,1,1.4c-0.1,0.7-0.8,1.1-1.4,1
		c-0.3-0.1-0.6-0.2-0.8-0.5C7.8,16.7,7.7,16.3,7.8,16z"/>
	<path class="st0" d="M22.1,24.9h-5.9v-1.7c0.9-0.1,1.8-0.3,2.7-0.6c3.5-1.1,5.9-4.4,5.9-8.1v-1.4c0,0,0-0.1,0-0.1
		c0-0.2,0-0.4,0-0.6c0-5.8-4.7-10.5-10.6-10.5C8.4,1.8,3.6,6.5,3.6,12.4c0,2.9,1.2,5.7,3.3,7.6c-0.2,0.4-0.3,0.9-0.2,1.3
		c0.2,0.8,0.8,1.5,1.7,1.6C9.2,23,11,23.3,13,23.3v1.5H7.2c-1,0-1.8,0.8-1.8,1.8c0,0.2,0.2,0.5,0.5,0.5h17.6c0.2,0,0.5-0.2,0.5-0.5
		C23.9,25.7,23.1,24.9,22.1,24.9L22.1,24.9z M15.3,24.9h-1.4v-1.6c0.4,0,0.9,0,1.4-0.1V24.9z M4.5,12.4c0-5.3,4.3-9.6,9.7-9.6
		s9.7,4.3,9.7,9.6c0,0.2,0,0.5,0,0.7c-0.5,1.1-3.9,8.3-14.7,5.9c-0.6-0.1-1.1,0-1.6,0.3C5.6,17.5,4.5,15,4.5,12.4z M7.6,21.2
		c-0.1-0.4,0-0.7,0.3-1c0.3-0.3,0.6-0.4,1-0.3c9,2,13.3-2.4,15-4.9c-0.2,3.1-2.3,5.8-5.2,6.7C14.6,22.9,10,22.2,8.5,22
		C8.1,22,7.7,21.6,7.6,21.2L7.6,21.2z M6.4,26.2c0.2-0.3,0.4-0.5,0.8-0.5h6.3h2.3h6.3c0.3,0,0.6,0.2,0.8,0.5H6.4z"/>
</g>
</svg>
