<?xml version="1.0" encoding="utf-8"?>
<!-- Generator: Adobe Illustrator 22.0.0, SVG Export Plug-In . SVG Version: 6.00 Build 0)  -->
<svg version="1.1" id="Layer_1" xmlns="http://www.w3.org/2000/svg" xmlns:xlink="http://www.w3.org/1999/xlink" x="0px" y="0px"
	 viewBox="0 0 29.5 29.5" style="enable-background:new 0 0 29.5 29.5;" xml:space="preserve">
<style type="text/css">
	.st0{fill:#0000FF;}
</style>
<g>
	<g>
		<path class="st0" d="M14.7,6.9c-4.3,0-7.9,3.5-7.9,7.9c0,1.9,0.7,3.7,1.9,5.1l0.7-0.6c-1.1-1.3-1.7-2.9-1.7-4.5c0-3.9,3.1-7,7-7
			s7,3.1,7,7s-3.1,7-7,7c-1.8,0-3.5-0.7-4.8-1.9l-0.6,0.6c1.5,1.4,3.4,2.1,5.4,2.1c4.3,0,7.9-3.5,7.9-7.9S19.1,6.9,14.7,6.9
			L14.7,6.9z"/>
		<path class="st0" d="M25,4.2C22.4,1.6,18.8,0,14.7,0C6.6,0,0,6.6,0,14.7s6.6,14.7,14.7,14.7s14.7-6.6,14.7-14.7
			c0-3.8-1.5-7.3-3.8-9.9l0,0L25,5.4c0.3,0.3,0.6,0.7,0.9,1.1l-1.8,1.8c-0.8-1.1-1.8-2.1-2.9-2.9L23,3.6c0.5,0.4,1,0.8,1.4,1.2
			L25,4.2L25,4.2z M28.5,16.8H26c0.2-1.3,0.2-2.7,0-4.1h2.5C28.7,14.1,28.7,15.4,28.5,16.8z M26.4,7.2c0.9,1.4,1.6,3,1.9,4.6h-2.5
			c-0.3-1-0.7-1.9-1.2-2.8L26.4,7.2z M23.7,9.2c2.1,3.4,2.1,7.8,0,11.2c-2.4,3.8-6.9,5.7-11.3,4.7c-2.6-0.6-5-2.2-6.6-4.7
			c-2.1-3.4-2.1-7.8,0-11.2C9.1,4,15.6,2.8,20.3,5.8C21.6,6.6,22.8,7.7,23.7,9.2z M22.3,3.1c-1.1,1.1-0.7,0.7-1.8,1.8
			c-0.9-0.5-1.8-0.9-2.8-1.2V1.2C19.3,1.5,20.9,2.2,22.3,3.1z M16.8,1v2.5c-1.3-0.2-2.7-0.2-4.1,0V1C14,0.8,15.4,0.8,16.8,1z
			 M7.2,3.1c1.4-0.9,3-1.6,4.6-1.9v2.5C10.8,4,9.9,4.4,9,4.9C8.1,3.9,8.1,4,7.2,3.1L7.2,3.1z M6.5,3.6c0.6,0.6,1.2,1.2,1.8,1.8
			C7.1,6.1,6.1,7.1,5.4,8.3L3.6,6.5C4.4,5.4,5.4,4.4,6.5,3.6z M3.1,7.2L4.9,9C4.4,9.9,4,10.8,3.7,11.8H1.2C1.5,10.2,2.2,8.6,3.1,7.2
			z M1,12.7h2.5c-0.2,1.3-0.3,2.7,0,4.1H1C0.8,15.4,0.8,14.1,1,12.7z M1.2,17.7h2.5c0.3,1,0.7,1.9,1.2,2.8c-0.4,0.4-1.4,1.4-1.8,1.8
			C2.2,20.9,1.5,19.3,1.2,17.7z M6.5,25.9c-1.1-0.8-2.1-1.8-2.9-2.9l1.8-1.8c0.8,1.1,1.8,2.1,2.9,2.9C7.6,24.8,7.1,25.3,6.5,25.9z
			 M7.2,26.4c0.9-0.9,0.9-0.9,1.8-1.8c0.9,0.5,1.8,0.9,2.8,1.2v2.5C10.2,28,8.6,27.3,7.2,26.4L7.2,26.4z M12.7,28.5V26
			c1.3,0.2,2.7,0.2,4.1,0v2.5C15.4,28.7,14,28.7,12.7,28.5z M17.7,28.3v-2.5c1-0.3,1.9-0.7,2.8-1.2l1.8,1.8
			C20.9,27.3,19.3,28,17.7,28.3L17.7,28.3z M23,25.9l-1.8-1.8c1.1-0.8,2.1-1.8,2.9-2.9l1.8,1.8C25.1,24.1,24.1,25.1,23,25.9L23,25.9
			z M26.4,22.3l-1.8-1.8c0.5-0.9,0.9-1.8,1.2-2.8h2.5C28,19.3,27.3,20.9,26.4,22.3L26.4,22.3z"/>
		<path class="st0" d="M16.7,18.1c0.1,0,0.2,0,0.3,0c0.7-0.1,2.1-0.9,1.9-2.9c-0.1-2.3-3.8-5.1-3.9-5.2l-0.3-0.2L14.5,10
			c-0.2,0.1-3.8,2.9-3.9,5.2c-0.1,2,1.2,2.8,1.9,2.9l0,0c0.1,0,1,0.1,1.8-0.5v1.2h-0.9v0.9h2.7v-0.9h-0.9v-1.2
			C15.8,18,16.4,18.1,16.7,18.1L16.7,18.1z M12.7,17.2c-0.1,0-1.3-0.3-1.2-2c0.1-1.4,2.2-3.5,3.3-4.3c1.1,0.9,3.2,2.9,3.3,4.3
			c0.1,1.6-1.1,2-1.2,2s-1.1,0.1-1.7-1.1l-0.4-0.7l-0.4,0.7C13.7,17.3,12.8,17.2,12.7,17.2L12.7,17.2z"/>
	</g>
	<g>
		<g>
			<path class="st0" d="M5.1,14.3H6v0.9H5.1V14.3z"/>
		</g>
		<g>
			<path class="st0" d="M23.5,14.3h0.9v0.9h-0.9V14.3z"/>
		</g>
	</g>
</g>
</svg>
