<?xml version="1.0" encoding="utf-8"?>
<!-- Generator: Adobe Illustrator 22.0.0, SVG Export Plug-In . SVG Version: 6.00 Build 0)  -->
<svg version="1.1" id="Layer_1" xmlns="http://www.w3.org/2000/svg" xmlns:xlink="http://www.w3.org/1999/xlink" x="0px" y="0px"
	 viewBox="0 0 295.6 182" style="enable-background:new 0 0 295.6 182;" xml:space="preserve">
<style type="text/css">
	.st0{fill:#FFFFFF;}
</style>
<g id="outline">
	<path class="st0" d="M295.1,24.4l-3.8-8.3l3.8-8.3c1.2-2.6,0.2-5.9-2.2-7.2c-0.7-0.4-1.4-0.6-2.2-0.6h-73.9c-1.3,0-2.6,0.6-3.5,1.6
		l-6.4,6.9l-6.4-6.9c-0.9-1-2.2-1.6-3.5-1.6H4.9C2.2,0,0,2.4,0,5.4v171.3c0,3,2.2,5.4,4.9,5.4h192.1c1.3,0,2.6-0.6,3.5-1.6l6.4-6.9
		l6.4,6.9c0.9,1,2.2,1.6,3.5,1.6h73.9c2.7,0,4.9-2.4,4.9-5.4c0-0.8-0.2-1.7-0.5-2.4l-3.8-8.3l3.8-8.3c0.7-1.5,0.7-3.3,0-4.8
		l-3.8-8.3l3.8-8.3c0.7-1.5,0.7-3.3,0-4.8l-3.8-8.3l3.8-8.3c0.7-1.5,0.7-3.3,0-4.8l-3.8-8.3l3.8-8.3c0.7-1.5,0.7-3.3,0-4.8l-3.8-8.3
		l3.8-8.3c0.7-1.5,0.7-3.3,0-4.8l-3.8-8.3l3.8-8.3c0.7-1.5,0.7-3.3,0-4.8l-3.8-8.3l3.8-8.3C295.8,27.7,295.8,25.9,295.1,24.4z
		 M281.3,39.9l3.8,8.3l-3.8,8.3c-0.7,1.5-0.7,3.3,0,4.8l3.8,8.3l-3.8,8.3c-0.7,1.5-0.7,3.3,0,4.8l3.8,8.3l-3.8,8.3
		c-0.7,1.5-0.7,3.3,0,4.8l3.8,8.3l-3.8,8.3c-0.7,1.5-0.7,3.3,0,4.8l3.8,8.3l-3.8,8.3c-0.7,1.5-0.7,3.3,0,4.8l3.8,8.3l-3.8,8.3
		c-0.7,1.5-0.7,3.3,0,4.8l1.4,3h-63.9l-8.4-9.1c-1.9-2.1-5-2.1-7,0c0,0,0,0,0,0l-8.4,9.1H9.9V10.7H195l8.4,9.1c1.9,2.1,5,2.1,7,0
		c0,0,0,0,0,0l8.4-9.1h63.9l-1.4,3c-0.7,1.5-0.7,3.3,0,4.8l3.8,8.3l-3.8,8.3C280.6,36.6,280.6,38.4,281.3,39.9z"/>
	<path class="st0" d="M147.6,130.2c2.6-4.1,3.4-9.2,2.1-14c7.5-4.6,10.2-15,5.9-23.1c-0.4-0.7-0.8-1.4-1.3-2.1
		c5.3-7.4,4.1-18.1-2.7-23.9c-0.6-0.5-1.3-1-1.9-1.4c2.3-9-2.6-18.4-10.9-20.9c-0.7-0.2-1.5-0.4-2.3-0.5c-1-9.3-8.8-15.9-17.4-14.8
		c-0.8,0.1-1.5,0.3-2.3,0.5c-4.2-8.2-13.8-11-21.3-6.4c-0.7,0.4-1.3,0.9-1.9,1.4c-6.8-5.8-16.6-4.5-22,2.9c-0.5,0.7-0.9,1.4-1.3,2.1
		c-8.3-2.5-16.9,2.8-19.2,11.8c-0.2,0.8-0.4,1.6-0.5,2.5C42.1,45.5,36,54,37,63.3c0.1,0.8,0.2,1.7,0.5,2.5
		c-7.5,4.6-10.2,15-5.9,23.1c0.4,0.7,0.8,1.4,1.3,2.1c-5.3,7.4-4.1,18.1,2.7,23.9c0.6,0.5,1.3,1,1.9,1.4c-2.3,9,2.6,18.4,10.9,20.9
		c0.7,0.2,1.5,0.4,2.3,0.5c1.1,9.3,8.9,15.9,17.4,14.8c0.8-0.1,1.5-0.3,2.3-0.5c4.2,8.2,13.8,11,21.3,6.4c0.7-0.4,1.3-0.9,1.9-1.4
		c2.7,2.4,6,3.7,9.5,3.6c1.1,0,2.2-0.1,3.2-0.3c4.5-0.9,8.4-3.9,10.6-8.3c8.3,2.5,16.9-2.8,19.2-11.8c0.2-0.8,0.4-1.6,0.5-2.5
		C141.1,137.1,145.2,134.4,147.6,130.2z M142.2,107.5c-2.7,0-4.9,2.4-4.9,5.4c0,1.4,0.5,2.8,1.5,3.8c2.2,2.3,2.2,6.1,0,8.5
		c-1.6,1.7-4,2.3-6.1,1.3l-0.1,0c-2.5-1.1-5.4,0.2-6.4,3c-0.5,1.3-0.5,2.7,0,4c0,0,0,0.1,0,0.1c1.2,3-0.1,6.6-2.9,7.9
		c-2.1,1-4.5,0.4-6.1-1.3c-1.9-2.1-5-2.2-7-0.1c-1,1-1.5,2.4-1.5,3.9c0,3.3-2.4,6-5.5,6c-2.3,0-4.3-1.5-5.1-3.7
		c-0.7-2-2.6-3.4-4.6-3.4h0c-2,0-3.8,1.3-4.6,3.3c-1.1,3.1-4.4,4.5-7.2,3.3c-2.1-0.9-3.5-3.2-3.4-5.6c0-3-2.2-5.4-4.9-5.4
		c-1.3,0-2.6,0.6-3.5,1.6c-2.1,2.4-5.6,2.4-7.8,0c-1.6-1.7-2.1-4.3-1.2-6.6c0,0,0-0.1,0-0.1c1-2.7-0.2-5.9-2.7-7
		c-1.2-0.5-2.5-0.5-3.7,0l-0.1,0c-2.8,1.3-6-0.1-7.2-3.2c-0.9-2.3-0.4-4.9,1.2-6.6c2-2.1,2-5.4,0.1-7.6c-0.9-1-2.2-1.6-3.5-1.6h-0.1
		c-3,0-5.5-2.7-5.5-6c0-2.4,1.4-4.6,3.4-5.5c2.5-1.1,3.8-4.2,2.7-7c-0.5-1.4-1.5-2.4-2.7-3c-2.8-1.2-4.2-4.7-3-7.8
		c0.8-2.3,2.9-3.8,5.1-3.7c2.7,0,4.9-2.3,5-5.3c0-1.5-0.5-2.9-1.5-3.9c-2.2-2.3-2.2-6.1,0-8.5c1.6-1.7,4-2.3,6.1-1.3l0.1,0
		c2.5,1.1,5.4-0.2,6.4-3c0.5-1.3,0.5-2.7,0-4c0,0,0-0.1,0-0.1c-1.2-3,0.1-6.6,2.9-7.9c2.1-1,4.5-0.4,6.1,1.3c1.9,2.1,5,2.2,7,0.1
		c1-1,1.5-2.4,1.5-3.9c0-3.3,2.4-6,5.5-6c2.3,0,4.3,1.5,5.1,3.7v0c0.7,2,2.6,3.4,4.6,3.4h0c2,0,3.8-1.3,4.6-3.3
		c1.1-3.1,4.4-4.5,7.2-3.3c2.1,0.9,3.5,3.2,3.4,5.6c0,3,2.2,5.4,4.9,5.4c1.3,0,2.6-0.6,3.5-1.6c2.1-2.4,5.6-2.4,7.8,0
		c1.6,1.7,2.1,4.3,1.2,6.6c0,0,0,0.1,0,0.1c-1,2.7,0.2,5.9,2.7,7c1.2,0.5,2.5,0.5,3.7,0l0.1,0c2.8-1.3,6,0.1,7.2,3.2
		c0.9,2.3,0.4,4.9-1.2,6.6c-2,2.1-2,5.4-0.1,7.6c0.9,1,2.2,1.6,3.6,1.6c3,0,5.5,2.6,5.6,5.9c0,2.4-1.3,4.7-3.4,5.6
		c-2.5,1.1-3.8,4.2-2.7,7c0.5,1.4,1.5,2.4,2.7,3c2.8,1.2,4.2,4.7,3,7.8C146.5,106,144.5,107.5,142.2,107.5L142.2,107.5z"/>
	<path class="st0" d="M118,65.8c-1.9-2.1-5-2.1-7,0c0,0,0,0,0,0L66.7,114c-1.9,2.1-1.9,5.5,0,7.6c1.9,2.1,5,2.1,7,0L118,73.4
		C119.9,71.3,119.9,67.9,118,65.8C118,65.8,118,65.8,118,65.8z"/>
	<path class="st0" d="M75.1,89.7c7.5,0,13.5-6.6,13.5-14.7s-6.1-14.7-13.5-14.7c-7.5,0-13.5,6.6-13.5,14.7
		C61.6,83.1,67.6,89.7,75.1,89.7z M75.1,70.9c2,0,3.7,1.8,3.7,4c0,2.2-1.7,4-3.7,4c-2,0-3.7-1.8-3.7-4l0,0
		C71.4,72.7,73.1,70.9,75.1,70.9z"/>
	<path class="st0" d="M109.6,97.7c-7.5,0-13.5,6.6-13.5,14.7s6.1,14.7,13.5,14.7s13.5-6.6,13.5-14.7
		C123.2,104.3,117.1,97.7,109.6,97.7z M109.6,116.4c-2,0-3.7-1.8-3.7-4s1.7-4,3.7-4s3.7,1.8,3.7,4
		C113.3,114.6,111.7,116.4,109.6,116.4z"/>
	<path class="st0" d="M206.9,32.1c-2.7,0-4.9,2.4-4.9,5.4v10.7c0,3,2.2,5.4,4.9,5.4c2.7,0,4.9-2.4,4.9-5.4V37.5
		C211.8,34.5,209.6,32.1,206.9,32.1z"/>
	<path class="st0" d="M206.9,64.2c-2.7,0-4.9,2.4-4.9,5.4v10.7c0,3,2.2,5.4,4.9,5.4c2.7,0,4.9-2.4,4.9-5.4V69.6
		C211.8,66.6,209.6,64.2,206.9,64.2z"/>
	<path class="st0" d="M206.9,96.4c-2.7,0-4.9,2.4-4.9,5.4v10.7c0,3,2.2,5.4,4.9,5.4c2.7,0,4.9-2.4,4.9-5.4v-10.7
		C211.8,98.7,209.6,96.4,206.9,96.4z"/>
	<path class="st0" d="M206.9,128.5c-2.7,0-4.9,2.4-4.9,5.4v10.7c0,3,2.2,5.4,4.9,5.4c2.7,0,4.9-2.4,4.9-5.4v-10.7
		C211.8,130.9,209.6,128.5,206.9,128.5z"/>
	<path class="st0" d="M266,21.4h-39.4c-2.7,0-4.9,2.4-4.9,5.4v128.5c0,3,2.2,5.4,4.9,5.4H266c2.7,0,4.9-2.4,4.9-5.4V26.8
		C271,23.8,268.7,21.4,266,21.4z M261.1,149.9h-29.6V32.1h29.6V149.9z"/>
	<path class="st0" d="M24.6,48.2c2.7,0,4.9-2.4,4.9-5.4V32.1h9.9c2.7,0,4.9-2.4,4.9-5.4s-2.2-5.4-4.9-5.4H24.6
		c-2.7,0-4.9,2.4-4.9,5.4v16.1C19.7,45.8,21.9,48.2,24.6,48.2z"/>
	<path class="st0" d="M39.4,149.9h-9.9v-10.7c0-3-2.2-5.4-4.9-5.4s-4.9,2.4-4.9,5.4v16.1c0,3,2.2,5.4,4.9,5.4h14.8
		c2.7,0,4.9-2.4,4.9-5.4S42.1,149.9,39.4,149.9z"/>
	<path class="st0" d="M187.2,21.4h-44.3c-2.7,0-4.9,2.4-4.9,5.4s2.2,5.4,4.9,5.4h39.4v117.8h-39.4c-2.7,0-4.9,2.4-4.9,5.4
		s2.2,5.4,4.9,5.4h44.3c2.7,0,4.9-2.4,4.9-5.4V26.8C192.1,23.8,189.9,21.4,187.2,21.4z"/>
</g>
</svg>
