<?xml version="1.0" encoding="utf-8"?>
<!-- Generator: Adobe Illustrator 22.0.0, SVG Export Plug-In . SVG Version: 6.00 Build 0)  -->
<svg version="1.1" id="Layer_1" xmlns="http://www.w3.org/2000/svg" xmlns:xlink="http://www.w3.org/1999/xlink" x="0px" y="0px"
	 viewBox="0 0 30 30" style="enable-background:new 0 0 30 30;" xml:space="preserve">
<style type="text/css">
	.Drop_x0020_Shadow{fill:none;}
	.Thick_x0020_Blue_x0020_Neon{fill:none;stroke:#0073BC;stroke-width:10;stroke-linecap:round;stroke-linejoin:round;}
	.Illuminating_x0020_Aqua{fill:url(#SVGID_1_);stroke:#FFFFFF;stroke-width:0.25;stroke-miterlimit:1;}
	.Black_x0020_Highlight{fill:url(#SVGID_2_);stroke:#FFFFFF;stroke-width:0.3629;stroke-miterlimit:1;}
	.Bugaboo_GS{fill-rule:evenodd;clip-rule:evenodd;fill:#FFDD00;}
	.st0{fill:#FCFCFC;}
</style>
<linearGradient id="SVGID_1_" gradientUnits="userSpaceOnUse" x1="-350.1834" y1="-496.4447" x2="-350.1834" y2="-497.4447">
	<stop  offset="0" style="stop-color:#1D59F4"/>
	<stop  offset="0.618" style="stop-color:#2D65EE"/>
	<stop  offset="0.6292" style="stop-color:#3864F3"/>
	<stop  offset="0.9831" style="stop-color:#00DDFC"/>
</linearGradient>
<linearGradient id="SVGID_2_" gradientUnits="userSpaceOnUse" x1="-350.1834" y1="-496.4447" x2="-350.1834" y2="-497.4447">
	<stop  offset="0" style="stop-color:#060606"/>
	<stop  offset="0.618" style="stop-color:#000000"/>
	<stop  offset="0.6292" style="stop-color:#000000"/>
	<stop  offset="0.9831" style="stop-color:#000000"/>
</linearGradient>
<g>
	<g>
		<g>
			<path class="st0" d="M15,5c-1.4,0-2.5,1.1-2.5,2.5S13.6,10,15,10c1.4,0,2.5-1.1,2.5-2.5S16.4,5,15,5z M15,8.7
				c-0.7,0-1.2-0.6-1.2-1.2s0.6-1.2,1.2-1.2s1.2,0.6,1.2,1.2S15.7,8.7,15,8.7z"/>
			<path class="st0" d="M16.9,11.3h-5c-0.3,0-0.6,0.3-0.6,0.6v2.5c0,0.3,0.3,0.6,0.6,0.6h0.6v9.4c0,0.3,0.3,0.6,0.6,0.6h3.8
				c0.3,0,0.6-0.3,0.6-0.6V11.9C17.5,11.5,17.2,11.3,16.9,11.3z M16.2,23.7h-2.5v-9.4c0-0.3-0.3-0.6-0.6-0.6h-0.6v-1.2h3.8
				L16.2,23.7L16.2,23.7z"/>
			<path class="st0" d="M15,0C6.7,0,0,6.7,0,15s6.7,15,15,15s15-6.7,15-15S23.3,0,15,0z M15,28.8C7.4,28.8,1.2,22.6,1.2,15
				S7.4,1.2,15,1.2S28.8,7.4,28.8,15S22.6,28.8,15,28.8z"/>
		</g>
	</g>
</g>
</svg>
