<?xml version="1.0"?>
<svg xmlns="http://www.w3.org/2000/svg" id="Layer_1" enable-background="new 0 0 256 256" height="512px" viewBox="0 0 256 256" width="512px" class=""><g><path d="m45.667 100.666h127.351v12.183h-127.351z" fill="#ebe7f2" data-original="#EBE7F2" class=""/><path d="m74.755 151.967c-3.982 3.317-16.01 14.188-16.826 25.088-.399 5.322 3.468 10.19 8.798 10.452 2.441.12 4.675-.708 6.389-2.142.61-.51 1.532.027 1.43.816v.001c-.314 2.41-1.065 4.743-2.218 6.883l-1.234 2.29c-.305.566.105 1.252.748 1.252h8.365c.643 0 1.052-.686.748-1.252l-1.234-2.29c-1.153-2.14-1.904-4.473-2.218-6.883v-.001c-.103-.789.819-1.326 1.43-.816 1.715 1.434 3.948 2.262 6.389 2.142 5.331-.262 9.197-5.129 8.799-10.451-.816-10.9-12.844-21.771-16.826-25.089-.738-.614-1.803-.614-2.54 0z" fill="#a58bc9" data-original="#A58BC9" class="active-path" data-old_color="#a58bc9" style="fill:#FFFFFF"/><circle cx="57.885" cy="138.984" fill="#ebe7f2" r="4.564" data-original="#EBE7F2" class=""/><path d="m178.324 170.305c-2.931 2.931-7.682 2.931-10.612 0-2.931-2.931-2.931-7.682 0-10.612 2.931-2.931 7.682-2.931 10.612 0 2.93 2.93 2.93 7.682 0 10.612z" fill="#ebe7f2" data-original="#EBE7F2" class=""/><g fill="#846f75"><path d="m209.893 35.002c-1.814-.845-3.891-.57-5.423.717h.001l-28.11 23.61v-18.796c0-4.949-4.026-8.975-8.975-8.975h-115.245c-4.948 0-8.974 4.026-8.974 8.975v65.524c0 4.949 4.025 8.975 8.974 8.975h115.245c4.948 0 8.975-4.026 8.975-8.975v-18.795l28.109 23.61c1.532 1.286 3.608 1.562 5.424.716 1.812-.845 2.939-2.613 2.939-4.613v-67.359c0-2.001-1.127-3.769-2.94-4.614zm-2.06 71.973-.147.068-32.217-27.061c-.745-.625-1.784-.762-2.664-.352-.881.411-1.444 1.294-1.444 2.266v24.161c0 2.191-1.783 3.975-3.975 3.975h-115.245c-2.191 0-3.974-1.783-3.974-3.975v-65.524c0-2.191 1.782-3.975 3.974-3.975h115.245c2.191 0 3.975 1.783 3.975 3.975v24.161c0 .972.563 1.855 1.444 2.266.88.411 1.919.274 2.663-.352l32.218-27.061c.001 0 .147.068.147.068z" data-original="#846F75" class="" style="fill:#FFFFFF" data-old_color="#846F75"/><path d="m129.245 184.569h-29.789c-2.78 0-5.042 2.261-5.042 5.041v29.79c0 2.78 2.262 5.042 5.042 5.042h29.789c2.779 0 5.041-2.262 5.041-5.042v-29.79c0-2.779-2.262-5.041-5.041-5.041zm.041 34.831c0 .023-.019.042-.041.042l-29.831-.042.042-29.831 29.83.041z" data-original="#846F75" class="" style="fill:#FFFFFF" data-old_color="#846F75"/><circle cx="108.023" cy="198.249" r="3.638" data-original="#846F75" class="" style="fill:#FFFFFF" data-old_color="#846F75"/><path d="m108.023 214.411c2.009 0 3.638-1.629 3.638-3.638s-1.629-3.638-3.638-3.638-3.638 1.629-3.638 3.638 1.629 3.638 3.638 3.638z" data-original="#846F75" class="" style="fill:#FFFFFF" data-old_color="#846F75"/><path d="m120.689 201.887c2.009 0 3.638-1.629 3.638-3.638s-1.629-3.638-3.638-3.638-3.638 1.629-3.638 3.638 1.629 3.638 3.638 3.638z" data-original="#846F75" class="" style="fill:#FFFFFF" data-old_color="#846F75"/><path d="m120.689 214.411c2.009 0 3.638-1.629 3.638-3.638s-1.629-3.638-3.638-3.638-3.638 1.629-3.638 3.638 1.629 3.638 3.638 3.638z" data-original="#846F75" class="" style="fill:#FFFFFF" data-old_color="#846F75"/><path d="m80.789 219.441h-30.877c-.962 0-1.745-.783-1.745-1.746v-85.766c0-.963.783-1.746 1.745-1.746h52.225c.963 0 1.746.783 1.746 1.746v39.283c0 1.381 1.119 2.5 2.5 2.5s2.5-1.119 2.5-2.5v-39.283c0-3.72-3.026-6.746-6.746-6.746h-52.225c-3.72 0-6.745 3.026-6.745 6.746v85.766c0 3.72 3.025 6.746 6.745 6.746h30.877c1.381 0 2.5-1.119 2.5-2.5s-1.119-2.5-2.5-2.5z" data-original="#846F75" class="" style="fill:#FFFFFF" data-old_color="#846F75"/><path d="m201.321 137.029c-.051-.061-.093-.127-.151-.184-.057-.057-.123-.1-.184-.15-7.196-7.112-17.077-11.512-27.969-11.512-10.889 0-20.768 4.398-27.964 11.506-.063.052-.131.096-.191.156s-.104.128-.156.191c-7.107 7.195-11.505 17.074-11.505 27.962s4.397 20.767 11.505 27.962c.052.064.097.132.156.191s.127.104.191.156c7.195 7.108 17.074 11.506 27.964 11.506 10.892 0 20.774-4.4 27.969-11.512.061-.051.127-.093.184-.15s.1-.123.151-.184c7.112-7.196 11.512-17.077 11.512-27.97s-4.4-20.772-11.512-27.968zm-1.999 50.74-7.153-7.153c2.984-3.653 4.948-8.171 5.447-13.116h10.118c-.552 7.72-3.629 14.75-8.412 20.269zm-61.02-20.27h10.118c.499 4.945 2.462 9.462 5.447 13.115l-7.154 7.154c-4.783-5.518-7.86-12.548-8.411-20.269zm8.411-25.269 7.154 7.154c-2.984 3.653-4.948 8.171-5.447 13.115h-10.118c.551-7.721 3.628-14.75 8.411-20.269zm26.305 42.493c-10.876 0-19.724-8.848-19.724-19.724s8.848-19.724 19.724-19.724 19.724 8.848 19.724 19.724-8.848 19.724-19.724 19.724zm15.615-38.875c-3.653-2.984-8.171-4.948-13.115-5.447v-10.119c7.721.551 14.75 3.628 20.269 8.412zm-18.115-5.447c-4.945.499-9.463 2.462-13.116 5.447l-7.153-7.153c5.519-4.784 12.548-7.861 20.27-8.412v10.118zm-13.117 43.749c3.653 2.984 8.171 4.948 13.116 5.447v10.119c-7.721-.551-14.751-3.628-20.27-8.412zm18.117 5.447c4.945-.499 9.462-2.462 13.115-5.447l7.154 7.154c-5.519 4.783-12.548 7.86-20.269 8.412zm22.097-27.098c-.499-4.945-2.462-9.463-5.447-13.116l7.153-7.153c4.783 5.519 7.861 12.548 8.412 20.27h-10.118z" data-original="#846F75" class="" style="fill:#FFFFFF" data-old_color="#846F75"/><path d="m82.73 88.952h-11.291v-31.98c0-1.381-1.119-2.5-2.5-2.5s-2.5 1.119-2.5 2.5v34.479c0 1.381 1.119 2.5 2.5 2.5h13.791c1.381 0 2.5-1.119 2.5-2.5s-1.119-2.499-2.5-2.499z" data-original="#846F75" class="" style="fill:#FFFFFF" data-old_color="#846F75"/><path d="m95.326 54.472c-1.381 0-2.5 1.119-2.5 2.5v34.479c0 1.381 1.119 2.5 2.5 2.5s2.5-1.119 2.5-2.5v-34.479c0-1.381-1.119-2.5-2.5-2.5z" data-original="#846F75" class="" style="fill:#FFFFFF" data-old_color="#846F75"/><path d="m122.354 54.533c-1.355-.306-2.685.546-2.986 1.893l-5.284 23.589-5.284-23.589c-.302-1.347-1.632-2.199-2.986-1.893-1.347.302-2.194 1.639-1.893 2.986l7.724 34.479c.256 1.142 1.27 1.954 2.439 1.954s2.184-.812 2.439-1.954l7.724-34.479c.301-1.348-.547-2.685-1.893-2.986z" data-original="#846F75" class="" style="fill:#FFFFFF" data-old_color="#846F75"/><path d="m146.631 59.472c1.381 0 2.5-1.119 2.5-2.5s-1.119-2.5-2.5-2.5h-13.791c-1.381 0-2.5 1.119-2.5 2.5v34.479c0 1.381 1.119 2.5 2.5 2.5h13.791c1.381 0 2.5-1.119 2.5-2.5s-1.119-2.5-2.5-2.5h-11.291v-12.24h11.291c1.381 0 2.5-1.119 2.5-2.5s-1.119-2.5-2.5-2.5h-11.291v-12.24h11.291z" data-original="#846F75" class="" style="fill:#FFFFFF" data-old_color="#846F75"/></g></g> </svg>
