<?xml version="1.0" encoding="utf-8"?>
<!-- Generator: Adobe Illustrator 22.0.0, SVG Export Plug-In . SVG Version: 6.00 Build 0)  -->
<svg version="1.1" id="Layer_1" xmlns="http://www.w3.org/2000/svg" xmlns:xlink="http://www.w3.org/1999/xlink" x="0px" y="0px"
	 viewBox="0 0 29 23.3" style="enable-background:new 0 0 29 23.3;" xml:space="preserve">
<style type="text/css">
	.Drop_x0020_Shadow{fill:none;}
	.Thick_x0020_Blue_x0020_Neon{fill:none;stroke:#0073BC;stroke-width:10;stroke-linecap:round;stroke-linejoin:round;}
	.Illuminating_x0020_Aqua{fill:url(#SVGID_1_);stroke:#FFFFFF;stroke-width:0.25;stroke-miterlimit:1;}
	.Black_x0020_Highlight{fill:url(#SVGID_2_);stroke:#FFFFFF;stroke-width:0.3629;stroke-miterlimit:1;}
	.Bugaboo_GS{fill-rule:evenodd;clip-rule:evenodd;fill:#FFDD00;}
	.st0{fill:#FCFCFC;}
</style>
<linearGradient id="SVGID_1_" gradientUnits="userSpaceOnUse" x1="-371.6834" y1="-513.0327" x2="-371.6834" y2="-514.0327">
	<stop  offset="0" style="stop-color:#1D59F4"/>
	<stop  offset="0.618" style="stop-color:#2D65EE"/>
	<stop  offset="0.6292" style="stop-color:#3864F3"/>
	<stop  offset="0.9831" style="stop-color:#00DDFC"/>
</linearGradient>
<linearGradient id="SVGID_2_" gradientUnits="userSpaceOnUse" x1="-371.6834" y1="-513.0327" x2="-371.6834" y2="-514.0327">
	<stop  offset="0" style="stop-color:#060606"/>
	<stop  offset="0.618" style="stop-color:#000000"/>
	<stop  offset="0.6292" style="stop-color:#000000"/>
	<stop  offset="0.9831" style="stop-color:#000000"/>
</linearGradient>
<g>
	<g>
		<g>
			<path class="st0" d="M28.4,11.1h-1.6c-0.3,0-0.6,0.3-0.6,0.6c0,0.3,0.3,0.6,0.6,0.6h1.6c0.3,0,0.6-0.3,0.6-0.6
				C29,11.3,28.7,11.1,28.4,11.1z"/>
		</g>
	</g>
	<g>
		<g>
			<path class="st0" d="M28.4,8c-0.2-0.3-0.5-0.4-0.8-0.2l-1.1,0.6c-0.3,0.2-0.4,0.5-0.2,0.8c0.1,0.2,0.3,0.3,0.5,0.3
				c0.1,0,0.2,0,0.3-0.1l1.1-0.6C28.4,8.6,28.5,8.3,28.4,8z"/>
		</g>
	</g>
	<g>
		<g>
			<path class="st0" d="M28.2,14.5l-1.1-0.6c-0.3-0.2-0.6-0.1-0.8,0.2c-0.2,0.3-0.1,0.6,0.2,0.8l1.1,0.6c0.1,0.1,0.2,0.1,0.3,0.1
				c0.2,0,0.4-0.1,0.5-0.3C28.5,15,28.4,14.7,28.2,14.5z"/>
		</g>
	</g>
	<g>
		<g>
			<path class="st0" d="M24.4,3.7C23.9,1.2,23.1,0,22.1,0c-0.2,0-0.4,0-0.6,0.1L0.4,9C0.1,9.1,0,9.3,0,9.6v4.1
				c0,0.2,0.1,0.4,0.4,0.5l3.1,1.3c0,0,0,0,0,0L5,16.2v3.6c0,0.9,0.7,1.6,1.6,1.6h5.2c0.9,0,1.6-0.7,1.6-1.6v0l8.1,3.4
				c0.2,0.1,0.4,0.1,0.6,0.1c1,0,1.8-1.2,2.4-3.7c0.5-2.1,0.8-5,0.8-7.9C25.2,8.6,24.9,5.8,24.4,3.7z M12.3,19.8
				c0,0.3-0.2,0.5-0.5,0.5H6.6c-0.3,0-0.5-0.2-0.5-0.5v-3.1l6.2,2.6L12.3,19.8L12.3,19.8z M4.3,14.6v-3C4.3,11.3,4,11,3.7,11
				c-0.3,0-0.6,0.3-0.6,0.6v2.5l-2-0.8V9.9l19.1-8c-0.2,0.5-0.4,1.1-0.5,1.8c0,0.1,0,0.2-0.1,0.2l-6.5,2.5c-0.3,0.1-0.4,0.4-0.3,0.7
				c0.1,0.2,0.3,0.4,0.5,0.4c0.1,0,0.1,0,0.2,0l5.9-2.2C19.1,7.1,19,9.3,19,11.6c0,3,0.3,5.8,0.8,7.9c0.2,0.7,0.3,1.3,0.5,1.8
				L4.3,14.6z M20.2,9.5c1,0.2,1.8,1.1,1.8,2.1c0,1.1-0.8,2-1.8,2.1c0-0.7,0-1.4,0-2.1C20.1,10.9,20.1,10.2,20.2,9.5z M23.3,19.3
				c-0.5,2.3-1.1,2.8-1.2,2.8c0,0,0,0,0,0c0,0,0,0,0,0l0,0c-0.2-0.1-0.7-0.7-1.2-2.8c-0.3-1.3-0.5-2.8-0.6-4.4
				c1.6-0.2,2.9-1.6,2.9-3.3c0-1.7-1.3-3.1-2.9-3.3c0.1-1.7,0.3-3.2,0.6-4.4c0.5-2,1-2.7,1.2-2.8l0.1,0c0,0,0,0,0,0
				c0.1,0,0.7,0.5,1.2,2.8c0.5,2,0.7,4.8,0.7,7.7S23.8,17.3,23.3,19.3z"/>
		</g>
	</g>
	<g>
		<g>
			<path class="st0" d="M11,7.6c-0.1-0.3-0.4-0.4-0.7-0.3l0,0C9.9,7.4,9.8,7.7,9.9,8c0.1,0.2,0.3,0.4,0.5,0.4c0.1,0,0.1,0,0.2,0l0,0
				C11,8.3,11.1,7.9,11,7.6z"/>
		</g>
	</g>
</g>
</svg>
