<?xml version="1.0" encoding="utf-8"?>
<!-- Generator: Adobe Illustrator 22.0.0, SVG Export Plug-In . SVG Version: 6.00 Build 0)  -->
<svg version="1.1" id="Layer_1" xmlns="http://www.w3.org/2000/svg" xmlns:xlink="http://www.w3.org/1999/xlink" x="0px" y="0px"
	 viewBox="0 0 29.5 29.5" style="enable-background:new 0 0 29.5 29.5;" xml:space="preserve">
<style type="text/css">
	.st0{fill:#0000FF;}
</style>
<g>
	<path class="st0" d="M14.7,0C6.6,0,0,6.6,0,14.7s6.6,14.7,14.7,14.7s14.7-6.6,14.7-14.7S22.9,0,14.7,0z M14.7,28.5
		C7.1,28.5,1,22.4,1,14.7S7.1,1,14.7,1s13.8,6.2,13.8,13.8S22.4,28.5,14.7,28.5z"/>
	<path class="st0" d="M14.7,1.9c-7,0-12.8,5.8-12.8,12.8s5.8,12.8,12.8,12.8s12.8-5.8,12.8-12.8S21.8,1.9,14.7,1.9z M26.6,14.7
		c0,0.3,0,0.6,0,1h-1.9c0-0.3,0-0.6,0-1c0-0.3,0-0.6,0-1h1.9C26.6,14.1,26.6,14.4,26.6,14.7z M18.2,24.1l0.7,1.8
		c-0.7,0.3-1.5,0.5-2.2,0.6v-1.9C17.2,24.5,17.7,24.3,18.2,24.1L18.2,24.1z M19.1,23.8c0.4-0.2,0.9-0.4,1.3-0.7l1.4,1.4
		c-0.6,0.4-1.3,0.8-1.9,1.1L19.1,23.8z M14.7,23.8c-5,0-9-4.1-9-9s4.1-9,9-9s9,4.1,9,9S19.7,23.8,14.7,23.8z M10.4,23.8l-0.7,1.8
		c-0.7-0.3-1.3-0.7-1.9-1.1L9.2,23C9.6,23.3,10,23.5,10.4,23.8L10.4,23.8z M11.3,24.1c0.5,0.2,1,0.3,1.5,0.4v1.9
		c-0.8-0.1-1.5-0.3-2.2-0.6L11.3,24.1z M2.9,14.7c0-0.3,0-0.6,0-1h1.9c0,0.3,0,0.6,0,1c0,0.3,0,0.6,0,1H2.9
		C2.9,15.4,2.9,15.1,2.9,14.7z M5.7,10.4L4,9.7C4.3,9,4.7,8.4,5.1,7.8l1.4,1.4C6.2,9.6,6,10,5.7,10.4L5.7,10.4z M5.4,11.3
		c-0.2,0.5-0.3,1-0.4,1.5H3c0.1-0.8,0.3-1.5,0.6-2.2L5.4,11.3z M4.9,16.7c0.1,0.5,0.3,1,0.4,1.5l-1.8,0.7c-0.3-0.7-0.5-1.5-0.6-2.2
		H4.9z M5.7,19.1c0.2,0.4,0.4,0.9,0.7,1.3L5,21.8c-0.4-0.6-0.8-1.3-1.1-1.9L5.7,19.1z M11.3,5.4l-0.7-1.8c0.7-0.3,1.5-0.5,2.2-0.6
		v1.9C12.3,5,11.8,5.2,11.3,5.4z M10.4,5.7C10,6,9.6,6.2,9.2,6.5L7.8,5.1C8.4,4.7,9.1,4.3,9.7,4L10.4,5.7z M19.1,5.7L19.8,4
		c0.7,0.3,1.3,0.7,1.9,1.1l-1.4,1.4C19.9,6.2,19.5,6,19.1,5.7z M18.2,5.4c-0.5-0.2-1-0.3-1.5-0.4V3c0.8,0.1,1.5,0.3,2.2,0.6
		L18.2,5.4z M23,9.2l1.4-1.4c0.4,0.6,0.8,1.3,1.1,1.9l-1.8,0.7C23.5,10,23.3,9.6,23,9.2L23,9.2z M23.8,19.1l1.8,0.7
		c-0.3,0.7-0.7,1.3-1.1,1.9L23,20.3C23.3,19.9,23.5,19.5,23.8,19.1L23.8,19.1z M24.1,18.2c0.2-0.5,0.3-1,0.4-1.5h1.9
		c-0.1,0.8-0.3,1.5-0.6,2.2L24.1,18.2z M24.6,12.8c-0.1-0.5-0.3-1-0.4-1.5l1.8-0.7c0.3,0.7,0.5,1.5,0.6,2.2H24.6z M23.8,7l-1.3,1.3
		C22,7.9,21.6,7.5,21.1,7l1.3-1.3C22.9,6.1,23.4,6.6,23.8,7z M15.7,2.9v1.9c-0.3,0-0.6,0-1,0c-0.3,0-0.6,0-1,0V2.9c0.3,0,0.6,0,1,0
		C15.1,2.9,15.4,2.9,15.7,2.9z M7,5.7L8.4,7C7.9,7.5,7.5,7.9,7,8.4L5.7,7C6.1,6.6,6.6,6.1,7,5.7z M5.7,22.5L7,21.1
		c0.4,0.5,0.9,0.9,1.3,1.3L7,23.8C6.6,23.4,6.1,22.9,5.7,22.5z M13.8,26.6v-1.9c0.3,0,0.6,0,1,0c0.3,0,0.6,0,1,0v1.9
		c-0.3,0-0.6,0-1,0C14.4,26.6,14.1,26.6,13.8,26.6z M22.5,23.8l-1.3-1.3c0.5-0.4,0.9-0.9,1.3-1.3l1.3,1.3
		C23.4,22.9,22.9,23.4,22.5,23.8z"/>
	<path class="st0" d="M20.6,17.9c0.3-0.6,0.5-1.2,0.7-1.8c0.6-0.1,1.1-0.7,1.1-1.4s-0.5-1.2-1.1-1.4c-0.5-2.6-2.5-4.6-5.1-5.1
		c-0.1-0.6-0.7-1.1-1.4-1.1s-1.2,0.5-1.4,1.1c-2.6,0.5-4.6,2.5-5.1,5.1c-0.6,0.1-1.1,0.7-1.1,1.4s0.5,1.2,1.1,1.4
		c0.5,2.6,2.5,4.6,5.1,5.1c0.1,0.6,0.7,1.1,1.4,1.1s1.2-0.5,1.4-1.1c0.6-0.1,1.2-0.4,1.8-0.7c0.3,0.5,0.9,0.8,1.6,0.8
		c1,0,1.9-0.9,1.9-1.9C21.4,18.9,21.1,18.3,20.6,17.9L20.6,17.9z M15.8,12.6l0.1-0.5c0.7,0.3,1.2,0.8,1.5,1.5l-0.5,0.1
		C16.7,13.2,16.3,12.8,15.8,12.6z M14.7,16.2c-0.8,0-1.4-0.6-1.4-1.4c0-0.8,0.6-1.4,1.4-1.4c0.8,0,1.4,0.6,1.4,1.4
		C16.2,15.5,15.5,16.2,14.7,16.2z M15.2,10.4l-0.4,2h-0.1h-0.1l-0.4-2V9.9c0.1,0.1,0.3,0.1,0.5,0.1s0.3,0,0.5-0.1V10.4z M13.7,12.6
		c-0.5,0.2-0.9,0.6-1.1,1.1l-0.5-0.1c0.3-0.7,0.8-1.2,1.5-1.5L13.7,12.6z M12.4,14.7L12.4,14.7c0,0.1,0,0.1,0,0.2l-2,0.4H9.9
		C10,15.2,10,15,10,14.8s0-0.3-0.1-0.5h0.5L12.4,14.7z M12.6,15.8c0.2,0.5,0.6,0.9,1.1,1.1l-0.1,0.5c-0.7-0.3-1.2-0.8-1.5-1.5
		L12.6,15.8z M14.3,19.1l0.4-2h0.1h0.1l0.4,2v0.5c-0.1-0.1-0.3-0.1-0.5-0.1s-0.3,0-0.5,0.1V19.1z M15.8,16.9
		c0.5-0.2,0.9-0.6,1.1-1.1l0.5,0.1c-0.3,0.7-0.8,1.2-1.5,1.5L15.8,16.9z M17.1,14.8L17.1,14.8c0-0.1,0-0.1,0-0.2l2-0.4h0.5
		c-0.1,0.1-0.1,0.3-0.1,0.5s0,0.3,0.1,0.5h-0.5L17.1,14.8z M20.9,15.2c-0.3,0-0.5-0.2-0.5-0.5s0.2-0.5,0.5-0.5s0.5,0.2,0.5,0.5
		S21.2,15.2,20.9,15.2z M20.3,13.3H19h-0.1l-0.6,0.1c-0.4-1.1-1.2-1.9-2.3-2.3l0.1-0.6v-0.1V9.2C18.2,9.7,19.8,11.3,20.3,13.3
		L20.3,13.3z M14.7,8.1c0.3,0,0.5,0.2,0.5,0.5S15,9,14.7,9s-0.5-0.2-0.5-0.5S14.5,8.1,14.7,8.1z M13.3,9.2v1.2v0.1l0.1,0.6
		c-1.1,0.4-1.9,1.2-2.3,2.3l-0.6-0.1h-0.1H9.2C9.7,11.3,11.3,9.7,13.3,9.2L13.3,9.2z M8.6,14.3c0.3,0,0.5,0.2,0.5,0.5
		s-0.2,0.5-0.5,0.5S8.1,15,8.1,14.7S8.3,14.3,8.6,14.3z M9.2,16.2h1.2h0.1l0.6-0.1c0.4,1.1,1.2,1.9,2.3,2.3L13.3,19v0.1v1.2
		C11.3,19.8,9.7,18.2,9.2,16.2L9.2,16.2z M14.7,21.4c-0.3,0-0.5-0.2-0.5-0.5s0.2-0.5,0.5-0.5s0.5,0.2,0.5,0.5
		C15.2,21.2,15,21.4,14.7,21.4z M16.2,20.3V19v-0.1L16,18.3c1.1-0.4,1.9-1.2,2.3-2.3l0.6,0.1H19h1.2c-0.1,0.5-0.3,1-0.6,1.4
		c-0.1,0-0.1,0-0.2,0c-1,0-1.9,0.9-1.9,1.9c0,0.1,0,0.1,0,0.2C17.2,19.9,16.7,20.1,16.2,20.3z M19.5,20.5c-0.5,0-1-0.4-1-1
		c0-0.5,0.4-1,1-1c0.5,0,1,0.4,1,1C20.5,20,20,20.5,19.5,20.5z"/>
</g>
</svg>
