<?xml version="1.0" encoding="utf-8"?>
<!-- Generator: Adobe Illustrator 22.0.0, SVG Export Plug-In . SVG Version: 6.00 Build 0)  -->
<svg version="1.1" id="Layer_1" xmlns="http://www.w3.org/2000/svg" xmlns:xlink="http://www.w3.org/1999/xlink" x="0px" y="0px"
	 viewBox="0 0 24 24" style="enable-background:new 0 0 24 24;" xml:space="preserve">
<style type="text/css">
	.Drop_x0020_Shadow{fill:none;}
	.Thick_x0020_Blue_x0020_Neon{fill:none;stroke:#0073BC;stroke-width:10;stroke-linecap:round;stroke-linejoin:round;}
	.Illuminating_x0020_Aqua{fill:url(#SVGID_1_);stroke:#FFFFFF;stroke-width:0.25;stroke-miterlimit:1;}
	.Black_x0020_Highlight{fill:url(#SVGID_2_);stroke:#FFFFFF;stroke-width:0.3629;stroke-miterlimit:1;}
	.Bugaboo_GS{fill-rule:evenodd;clip-rule:evenodd;fill:#FFDD00;}
	.st0{fill:#FCFCFC;}
</style>
<linearGradient id="SVGID_1_" gradientUnits="userSpaceOnUse" x1="-328.1829" y1="-577.9995" x2="-328.1829" y2="-578.9995">
	<stop  offset="0" style="stop-color:#1D59F4"/>
	<stop  offset="0.618" style="stop-color:#2D65EE"/>
	<stop  offset="0.6292" style="stop-color:#3864F3"/>
	<stop  offset="0.9831" style="stop-color:#00DDFC"/>
</linearGradient>
<linearGradient id="SVGID_2_" gradientUnits="userSpaceOnUse" x1="-328.1829" y1="-577.9995" x2="-328.1829" y2="-578.9995">
	<stop  offset="0" style="stop-color:#060606"/>
	<stop  offset="0.618" style="stop-color:#000000"/>
	<stop  offset="0.6292" style="stop-color:#000000"/>
	<stop  offset="0.9831" style="stop-color:#000000"/>
</linearGradient>
<g>
	<g>
		<g>
			<path class="st0" d="M12.3,14.9c-0.1-0.2-0.3-0.3-0.5-0.2c-0.3,0.1-0.6,0.3-1,0.4c-0.1,0-0.2,0.2-0.3,0.3l-0.4,2
				c0,0.2-0.2,0.3-0.4,0.3H8.7c-0.2,0-0.4-0.1-0.4-0.3l-0.4-2c0-0.1-0.1-0.3-0.3-0.3c-0.5-0.1-0.9-0.3-1.3-0.6
				c-0.1-0.1-0.3-0.1-0.4,0l-1.7,1.1c-0.2,0.1-0.4,0.1-0.5-0.1l-0.8-0.8c-0.1-0.1-0.2-0.4-0.1-0.5l1.1-1.7c0.1-0.1,0.1-0.3,0-0.4
				c-0.2-0.4-0.4-0.9-0.6-1.3c0-0.1-0.2-0.2-0.3-0.3l-2-0.4c-0.2,0-0.3-0.2-0.3-0.4V8.7c0-0.2,0.1-0.4,0.3-0.4l2-0.4
				c0.1,0,0.3-0.1,0.3-0.3c0.1-0.5,0.3-0.9,0.6-1.3C4,6.1,4,6,3.9,5.9L2.8,4.2C2.7,4,2.7,3.8,2.9,3.6l0.8-0.8C3.8,2.7,4,2.7,4.2,2.8
				l1.7,1.1C6,4,6.1,4,6.3,3.9c0.4-0.2,0.9-0.4,1.3-0.6c0.1,0,0.2-0.2,0.3-0.3l0.4-2c0-0.2,0.2-0.3,0.4-0.3h1.1
				c0.2,0,0.4,0.1,0.4,0.3l0.4,2c0,0.1,0.1,0.3,0.3,0.3c0.5,0.1,0.9,0.3,1.3,0.6c0.1,0.1,0.3,0.1,0.4,0l1.7-1.1
				c0.2-0.1,0.4-0.1,0.5,0.1l0.8,0.8c0.1,0.1,0.2,0.4,0.1,0.5l-1.1,1.7c-0.1,0.1-0.1,0.3,0,0.4c0.2,0.4,0.4,0.9,0.6,1.3
				c0,0.1,0.2,0.2,0.3,0.3l2,0.4c0.2,0,0.3,0.2,0.3,0.4v1.1c0,0.2-0.1,0.4-0.3,0.4l-2,0.4c-0.1,0-0.3,0.1-0.3,0.3
				c-0.1,0.3-0.2,0.7-0.4,1c-0.1,0.2,0,0.4,0.2,0.5c0.2,0.1,0.4,0,0.5-0.2c0.1-0.3,0.3-0.6,0.3-0.9l1.8-0.4c0.6-0.1,1-0.6,1-1.2V8.7
				c0-0.6-0.4-1-1-1.2l-1.8-0.4c-0.1-0.4-0.3-0.7-0.4-1.1l1-1.5c0.3-0.5,0.2-1.1-0.1-1.5l-0.8-0.8c-0.4-0.4-1-0.5-1.5-0.1l-1.5,1
				C12,3,11.7,2.8,11.3,2.7L10.9,1c-0.1-0.6-0.6-1-1.2-1H8.7c-0.6,0-1,0.4-1.2,1L7.2,2.7C6.8,2.8,6.4,3,6.1,3.2l-1.5-1
				C4.1,1.9,3.5,1.9,3.1,2.3L2.3,3.1c-0.4,0.4-0.5,1-0.1,1.5l1,1.5C3,6.4,2.8,6.8,2.7,7.2L1,7.5C0.4,7.6,0,8.1,0,8.7v1.1
				c0,0.6,0.4,1,1,1.2l1.8,0.4C2.8,11.7,3,12,3.2,12.4l-1,1.5c-0.3,0.5-0.2,1.1,0.1,1.5l0.8,0.8c0.4,0.4,1,0.5,1.5,0.1l1.5-1
				c0.3,0.2,0.7,0.3,1.1,0.4l0.4,1.8c0.1,0.6,0.6,1,1.2,1h1.1c0.6,0,1-0.4,1.2-1l0.4-1.8c0.3-0.1,0.6-0.2,0.9-0.3
				C12.3,15.3,12.4,15.1,12.3,14.9z"/>
			<path class="st0" d="M12.5,11.3c0.1,0,0.1,0,0.2,0c0.1,0,0.3-0.1,0.3-0.2c0.3-0.6,0.5-1.3,0.5-1.9c0-2.3-1.9-4.3-4.3-4.3
				C8.1,5,7,5.4,6.2,6.2c-0.1,0.1-0.2,0.4,0,0.5c0.1,0.1,0.4,0.2,0.5,0c0.7-0.6,1.5-1,2.4-1c1.9,0,3.5,1.6,3.5,3.5
				c0,0.6-0.1,1.1-0.4,1.6C12.2,11,12.3,11.2,12.5,11.3z"/>
			<path class="st0" d="M5.7,7.6c-0.2-0.1-0.4,0-0.5,0.2C5,8.3,5,8.7,5,9.2c0,2.3,1.9,4.3,4.3,4.3c0.9,0,1.8-0.3,2.5-0.8
				c0.2-0.1,0.2-0.4,0.1-0.5s-0.4-0.2-0.5-0.1c-0.6,0.4-1.3,0.7-2.1,0.7c-1.9,0-3.5-1.6-3.5-3.5c0-0.4,0.1-0.8,0.2-1.1
				C6,7.9,5.9,7.7,5.7,7.6z"/>
			<path class="st0" d="M23.3,16.6l-1.1-0.2c-0.1-0.2-0.1-0.4-0.2-0.6l0.6-0.9c0.2-0.4,0.2-0.8-0.1-1.1l-0.5-0.5
				c-0.3-0.3-0.8-0.4-1.1-0.1l-0.9,0.6c-0.2-0.1-0.4-0.2-0.6-0.2l-0.2-1.1c-0.1-0.4-0.5-0.7-0.9-0.7h-0.7c-0.4,0-0.8,0.3-0.9,0.7
				l-0.2,1.1c-0.2,0.1-0.4,0.1-0.6,0.2l-0.9-0.6c-0.4-0.2-0.8-0.2-1.1,0.1l-0.5,0.5c-0.3,0.3-0.4,0.8-0.1,1.1l0.6,0.9
				c-0.1,0.3-0.2,0.5-0.3,0.8c-0.1,0.2,0.1,0.4,0.3,0.5c0.2,0.1,0.4-0.1,0.5-0.3c0.1-0.3,0.2-0.6,0.4-0.8c0.1-0.1,0.1-0.3,0-0.4
				l-0.7-1.1c0-0.1,0-0.1,0-0.2l0.5-0.5c0.1-0.1,0.1-0.1,0.2,0l1.1,0.7c0.1,0.1,0.3,0.1,0.4,0c0.3-0.2,0.6-0.3,0.8-0.4
				c0.1,0,0.2-0.2,0.3-0.3l0.3-1.3c0-0.1,0.1-0.1,0.1-0.1h0.7c0.1,0,0.1,0.1,0.1,0.1l0.3,1.3c0,0.1,0.1,0.3,0.3,0.3
				c0.3,0.1,0.6,0.2,0.8,0.4c0.1,0.1,0.3,0.1,0.4,0l1.1-0.7c0.1,0,0.1,0,0.2,0l0.5,0.5c0.1,0.1,0.1,0.1,0,0.2l-0.7,1.1
				c-0.1,0.1-0.1,0.3,0,0.4c0.2,0.3,0.3,0.6,0.4,0.8c0,0.1,0.2,0.2,0.3,0.3l1.3,0.3c0.1,0,0.1,0.1,0.1,0.1v0.7
				c0,0.1-0.1,0.1-0.1,0.1l-1.3,0.3c-0.1,0-0.3,0.1-0.3,0.3c-0.1,0.3-0.2,0.6-0.4,0.8c-0.1,0.1-0.1,0.3,0,0.4l0.7,1.1
				c0,0.1,0,0.1,0,0.2l-0.5,0.5c-0.1,0.1-0.1,0.1-0.2,0l-1.1-0.7c-0.1-0.1-0.3-0.1-0.4,0c-0.3,0.2-0.6,0.3-0.8,0.4
				c-0.1,0-0.2,0.2-0.3,0.3l-0.3,1.3c0,0.1-0.1,0.1-0.1,0.1h-0.7c-0.1,0-0.1-0.1-0.1-0.1L17,21.8c0-0.1-0.1-0.3-0.3-0.3
				c-0.3-0.1-0.6-0.2-0.8-0.4c-0.1-0.1-0.3-0.1-0.4,0l-1.1,0.7c-0.1,0-0.1,0-0.2,0l-0.5-0.5c-0.1-0.1-0.1-0.1,0-0.2l0.7-1.1
				c0.1-0.1,0.1-0.3,0-0.4c-0.2-0.3-0.3-0.6-0.4-0.8c0-0.1-0.2-0.2-0.3-0.3l-1.3-0.3c-0.1,0-0.1-0.1-0.1-0.1v-0.7
				c0-0.1,0.1-0.1,0.1-0.1l0.1,0c0.2,0,0.3-0.2,0.3-0.4c0-0.2-0.2-0.3-0.4-0.3l-0.1,0c-0.4,0.1-0.7,0.5-0.7,0.9v0.7
				c0,0.4,0.3,0.8,0.7,0.9l1.1,0.2c0.1,0.2,0.1,0.4,0.2,0.6l-0.6,0.9c-0.2,0.4-0.2,0.8,0.1,1.1l0.5,0.5c0.3,0.3,0.8,0.4,1.1,0.1
				l0.9-0.6c0.2,0.1,0.4,0.2,0.6,0.2l0.2,1.1c0.1,0.4,0.5,0.7,0.9,0.7h0.7c0.4,0,0.8-0.3,0.9-0.7l0.2-1.1c0.2-0.1,0.4-0.1,0.6-0.2
				l0.9,0.6c0.4,0.2,0.8,0.2,1.1-0.1l0.5-0.5c0.3-0.3,0.4-0.8,0.1-1.1l-0.6-0.9c0.1-0.2,0.2-0.4,0.2-0.6l1.1-0.2
				c0.4-0.1,0.7-0.5,0.7-0.9v-0.7C24,17,23.7,16.6,23.3,16.6z"/>
			<path class="st0" d="M17.8,16.4c0.8,0,1.4,0.6,1.4,1.4c0,0.2,0.2,0.4,0.4,0.4c0.2,0,0.4-0.2,0.4-0.4c0-1.2-1-2.1-2.1-2.1
				s-2.1,1-2.1,2.1s1,2.1,2.1,2.1c0.5,0,0.9-0.2,1.3-0.4c0.2-0.1,0.2-0.4,0.1-0.5c-0.1-0.2-0.4-0.2-0.5-0.1
				c-0.2,0.2-0.5,0.3-0.8,0.3c-0.8,0-1.4-0.6-1.4-1.4C16.4,17.1,17.1,16.4,17.8,16.4z"/>
			<path class="st0" d="M11.5,9.2c0-1.3-1-2.3-2.3-2.3c-1.3,0-2.3,1-2.3,2.3c0,1.3,1,2.3,2.3,2.3S11.5,10.5,11.5,9.2z M7.7,9.2
				c0-0.9,0.7-1.6,1.6-1.6c0.9,0,1.6,0.7,1.6,1.6s-0.7,1.6-1.6,1.6C8.4,10.8,7.7,10.1,7.7,9.2z"/>
		</g>
	</g>
</g>
</svg>
