<?xml version="1.0" encoding="utf-8"?>
<!-- Generator: Adobe Illustrator 22.0.0, SVG Export Plug-In . SVG Version: 6.00 Build 0)  -->
<svg version="1.1" id="Layer_1" xmlns="http://www.w3.org/2000/svg" xmlns:xlink="http://www.w3.org/1999/xlink" x="0px" y="0px"
	 viewBox="0 0 25.5 25.5" style="enable-background:new 0 0 25.5 25.5;" xml:space="preserve">
<style type="text/css">
	.Drop_x0020_Shadow{fill:none;}
	.Thick_x0020_Blue_x0020_Neon{fill:none;stroke:#0073BC;stroke-width:10;stroke-linecap:round;stroke-linejoin:round;}
	.Illuminating_x0020_Aqua{fill:url(#SVGID_1_);stroke:#FFFFFF;stroke-width:0.25;stroke-miterlimit:1;}
	.Black_x0020_Highlight{fill:url(#SVGID_2_);stroke:#FFFFFF;stroke-width:0.3629;stroke-miterlimit:1;}
	.Bugaboo_GS{fill-rule:evenodd;clip-rule:evenodd;fill:#FFDD00;}
	.st0{fill:#FCFCFC;}
</style>
<linearGradient id="SVGID_1_" gradientUnits="userSpaceOnUse" x1="-334.4346" y1="-362.593" x2="-334.4346" y2="-363.593">
	<stop  offset="0" style="stop-color:#1D59F4"/>
	<stop  offset="0.618" style="stop-color:#2D65EE"/>
	<stop  offset="0.6292" style="stop-color:#3864F3"/>
	<stop  offset="0.9831" style="stop-color:#00DDFC"/>
</linearGradient>
<linearGradient id="SVGID_2_" gradientUnits="userSpaceOnUse" x1="-334.4346" y1="-362.593" x2="-334.4346" y2="-363.593">
	<stop  offset="0" style="stop-color:#060606"/>
	<stop  offset="0.618" style="stop-color:#000000"/>
	<stop  offset="0.6292" style="stop-color:#000000"/>
	<stop  offset="0.9831" style="stop-color:#000000"/>
</linearGradient>
<g>
	<path class="st0" d="M25.1,10.7H0.4c-0.2,0-0.4,0.2-0.4,0.4v14c0,0.2,0.2,0.4,0.4,0.4h24.7c0.2,0,0.4-0.2,0.4-0.4v-14
		C25.5,10.9,25.3,10.7,25.1,10.7z M24.7,24.7H0.8V11.5h23.9V24.7z"/>
	<path class="st0" d="M2.1,23.8h21.4c0.2,0,0.4-0.2,0.4-0.4V12.7c0-0.2-0.2-0.4-0.4-0.4H2.1c-0.2,0-0.4,0.2-0.4,0.4v10.7
		C1.6,23.7,1.8,23.8,2.1,23.8z M9.9,23v-9.9h5.8V23H9.9z M23,23h-6.6v-9.9H23V23z M2.5,13.1H9V23H2.5V13.1z"/>
	<path class="st0" d="M7.8,14.8H4.5c-0.2,0-0.4,0.2-0.4,0.4v1.6h0.8v-1.2h2.5v1.5c-1.1,1.1-1.6,2.6-1.6,4.1v0.1h0.8v-0.1
		c0-1.4,0.5-2.7,1.5-3.7c0.1-0.1,0.1-0.2,0.1-0.3v-2.1C8.2,15,8,14.8,7.8,14.8z"/>
	<path class="st0" d="M14.4,14.8h-3.3c-0.2,0-0.4,0.2-0.4,0.4v1.6h0.8v-1.2H14v1.5c-1.1,1.1-1.6,2.6-1.6,4.1v0.1h0.8v-0.1
		c0-1.4,0.5-2.7,1.5-3.7c0.1-0.1,0.1-0.2,0.1-0.3v-2.1C14.8,15,14.6,14.8,14.4,14.8z"/>
	<path class="st0" d="M18.1,16.8v-1.2h2.5v1.5c-1.1,1.1-1.6,2.6-1.6,4.1v0.1h0.8v-0.1c0-1.4,0.5-2.7,1.5-3.7
		c0.1-0.1,0.1-0.2,0.1-0.3v-2.1c0-0.2-0.2-0.4-0.4-0.4h-3.3c-0.2,0-0.4,0.2-0.4,0.4v1.6H18.1z"/>
	<path class="st0" d="M8,4l2.2,1.5l-0.8,3c0,0.2,0,0.3,0.2,0.4c0.1,0.1,0.3,0.1,0.5,0l2.6-1.9L15.4,9C15.5,9,15.5,9,15.6,9
		c0.1,0,0.2,0,0.2-0.1C16,8.9,16.1,8.7,16,8.5l-0.8-3L17.5,4c0.1-0.1,0.2-0.3,0.2-0.4c0-0.2-0.2-0.3-0.3-0.3l-2.7-0.4l-1.5-2.7
		c-0.1-0.3-0.6-0.3-0.7,0l-1.5,2.7L8.2,3.3C8,3.3,7.9,3.4,7.8,3.6C7.8,3.8,7.9,3.9,8,4L8,4z M11.2,3.7c0.1,0,0.2-0.1,0.3-0.2
		l1.3-2.3L14,3.5c0.1,0.1,0.2,0.2,0.3,0.2l1.8,0.3l-1.6,1c-0.1,0.1-0.2,0.3-0.2,0.4L15,7.6l-2-1.4c-0.1-0.1-0.2-0.1-0.2-0.1
		s-0.2,0-0.2,0.1l-2,1.4l0.6-2.2c0-0.2,0-0.3-0.2-0.4l-1.6-1L11.2,3.7z"/>
	<path class="st0" d="M1.6,7.2L1.2,9.4c0,0.2,0,0.3,0.2,0.4c0.1,0.1,0.3,0.1,0.4,0l1.8-1.1l1.8,1.1c0.1,0,0.1,0.1,0.2,0.1
		c0.1,0,0.2,0,0.2-0.1c0.1-0.1,0.2-0.2,0.2-0.4L5.8,7.2l1.4-1.1C7.4,6,7.4,5.8,7.4,5.7c0-0.2-0.2-0.3-0.3-0.3L5.2,5L4.1,2.7
		c-0.1-0.3-0.6-0.3-0.7,0L2.2,5L0.3,5.3C0.2,5.4,0,5.5,0,5.7C0,5.8,0,6,0.2,6.1L1.6,7.2z M2.5,5.7c0.1,0,0.2-0.1,0.3-0.2l0.9-1.7
		l0.9,1.7c0.1,0.1,0.2,0.2,0.3,0.2L6,6L5.1,6.6C5,6.7,4.9,6.9,4.9,7l0.3,1.6L3.9,7.9c-0.1,0-0.1-0.1-0.2-0.1c-0.1,0-0.1,0-0.2,0.1
		L2.2,8.6L2.5,7c0-0.2,0-0.3-0.2-0.4L1.4,6L2.5,5.7z"/>
	<path class="st0" d="M19.7,7.2l-0.4,2.2c0,0.2,0,0.3,0.2,0.4c0.1,0.1,0.3,0.1,0.4,0l1.8-1.1l1.8,1.1c0.1,0,0.1,0.1,0.2,0.1
		c0.1,0,0.2,0,0.2-0.1c0.1-0.1,0.2-0.2,0.2-0.4l-0.4-2.2l1.4-1.1c0.1-0.1,0.2-0.3,0.2-0.4c0-0.2-0.2-0.3-0.3-0.3L23.3,5l-1.1-2.3
		c-0.1-0.3-0.6-0.3-0.7,0L20.3,5l-1.9,0.4c-0.2,0-0.3,0.2-0.3,0.3c0,0.2,0,0.3,0.2,0.4L19.7,7.2z M20.6,5.7c0.1,0,0.2-0.1,0.3-0.2
		l0.9-1.7l0.9,1.7c0.1,0.1,0.2,0.2,0.3,0.2L24.1,6l-0.9,0.7C23.1,6.7,23,6.9,23,7l0.3,1.6L22,7.9c-0.1,0-0.1-0.1-0.2-0.1
		c-0.1,0-0.1,0-0.2,0.1l-1.3,0.8L20.6,7c0-0.2,0-0.3-0.2-0.4L19.5,6L20.6,5.7z"/>
</g>
</svg>
