<?xml version="1.0" encoding="utf-8"?>
<!-- Generator: Adobe Illustrator 22.0.0, SVG Export Plug-In . SVG Version: 6.00 Build 0)  -->
<svg version="1.1" id="Layer_1" xmlns="http://www.w3.org/2000/svg" xmlns:xlink="http://www.w3.org/1999/xlink" x="0px" y="0px"
	 viewBox="0 0 26.1 29.6" style="enable-background:new 0 0 26.1 29.6;" xml:space="preserve">
<style type="text/css">
	.Drop_x0020_Shadow{fill:none;}
	.Thick_x0020_Blue_x0020_Neon{fill:none;stroke:#0073BC;stroke-width:10;stroke-linecap:round;stroke-linejoin:round;}
	.Illuminating_x0020_Aqua{fill:url(#SVGID_1_);stroke:#FFFFFF;stroke-width:0.25;stroke-miterlimit:1;}
	.Black_x0020_Highlight{fill:url(#SVGID_2_);stroke:#FFFFFF;stroke-width:0.3629;stroke-miterlimit:1;}
	.Bugaboo_GS{fill-rule:evenodd;clip-rule:evenodd;fill:#FFDD00;}
	.st0{fill:#FCFCFC;}
</style>
<linearGradient id="SVGID_1_" gradientUnits="userSpaceOnUse" x1="-483.1463" y1="-621.3982" x2="-483.1463" y2="-622.3982">
	<stop  offset="0" style="stop-color:#1D59F4"/>
	<stop  offset="0.618" style="stop-color:#2D65EE"/>
	<stop  offset="0.6292" style="stop-color:#3864F3"/>
	<stop  offset="0.9831" style="stop-color:#00DDFC"/>
</linearGradient>
<linearGradient id="SVGID_2_" gradientUnits="userSpaceOnUse" x1="-483.1463" y1="-621.3982" x2="-483.1463" y2="-622.3982">
	<stop  offset="0" style="stop-color:#060606"/>
	<stop  offset="0.618" style="stop-color:#000000"/>
	<stop  offset="0.6292" style="stop-color:#000000"/>
	<stop  offset="0.9831" style="stop-color:#000000"/>
</linearGradient>
<g id="Contact_us">
	<path class="st0" d="M17.4,11.9v-0.5c0.3,0,0.5-0.2,0.5-0.5V9.5c0-2.7-2.2-4.8-4.8-4.8S8.2,6.8,8.2,9.5V11c0,0.3,0.2,0.5,0.5,0.5
		v0.5c0,1.6,0.9,3.2,2.4,3.9v0.6l-2.8,0.8c-1.5,0.4-2.5,1.7-2.5,3.3v3.1C5.8,23.8,6,24,6.3,24h13.5c0.3,0,0.5-0.2,0.5-0.5v-3.1
		c0-1.5-1-2.9-2.5-3.3L15,16.4v-0.6C16.4,15.1,17.4,13.6,17.4,11.9z M9.2,9.5c0-2.1,1.7-3.9,3.9-3.9s3.9,1.7,3.9,3.9v0.9
		c-0.8-0.1-1.5-0.6-1.8-1.3l-0.2-0.3c-0.1-0.2-0.4-0.3-0.6-0.2c0,0-0.1,0.1-0.1,0.1l-0.8,0.8c-0.6,0.6-1.5,1-2.4,1H9.2V9.5z
		 M9.7,11.9v-0.5H11c1.2,0,2.3-0.5,3.1-1.3l0.3-0.3c0.5,0.8,1.2,1.3,2.1,1.5v0.6c0,1.9-1.5,3.4-3.4,3.4S9.7,13.8,9.7,11.9z
		 M13.5,20.1v-1.2l1.7-1.4l0.7,0.2v0.8L13,21.4l-2.9-2.9v-0.8l0.7-0.2l1.7,1.4v1.2H13.5z M19.3,20.4V23H6.8v-2.6
		c0-1.1,0.7-2,1.8-2.3l0.6-0.2v0.8c0,0.1,0.1,0.3,0.1,0.3l3.4,3.4c0.2,0.2,0.5,0.2,0.7,0l3.4-3.4c0.1-0.1,0.1-0.2,0.1-0.3v-0.8
		l0.6,0.2C18.6,18.4,19.3,19.3,19.3,20.4z M14.2,17.1L13,18.1l-1.1-0.9c0.1-0.1,0.2-0.2,0.2-0.4v-0.6c0.6,0.1,1.3,0.1,1.9,0v0.6
		C14,16.9,14.1,17,14.2,17.1z"/>
	<path class="st0" d="M15,12.4h-1c0,0.5-0.4,1-1,1c-0.5,0-1-0.4-1-1h-1c0,1.1,0.9,1.9,1.9,1.9S15,13.5,15,12.4z"/>
	<path class="st0" d="M14.2,1.8l1.2-1.2L14.6,0l-1.9,1.9c-0.2,0.2-0.2,0.5,0,0.7l1.9,1.9l0.7-0.7l-1-1C20.9,3.5,25.7,9.4,25.1,16
		c-0.5,5.1-4.2,9.3-9.2,10.5l0.2,0.9c7-1.7,11.3-8.7,9.7-15.7C24.4,6.3,19.8,2.3,14.2,1.8L14.2,1.8z"/>
	<path class="st0" d="M11.4,25.1l-0.7,0.7l1,1C5.2,26.2,0.4,20.2,1,13.6c0.5-5.1,4.2-9.3,9.2-10.5L10,2.1C3,3.8-1.3,10.8,0.4,17.8
		c1.3,5.5,6,9.5,11.6,10L10.8,29l0.7,0.7l1.9-1.9c0.2-0.2,0.2-0.5,0-0.7L11.4,25.1z"/>
</g>
</svg>
